<svg xmlns="http://www.w3.org/2000/svg" enable-background="new 0 0 64 64" viewBox="0 0 64 64"><path fill="#03013a" d="M60,24.2h-6.5c-0.6-2.5-1.5-4.9-2.9-7.1l4.6-4.6c0.3-0.3,0.3-0.9,0-1.2l-5.5-5.5c-0.3-0.3-0.9-0.3-1.2,0
			l-4.6,4.6C41.7,9,39.3,8,36.7,7.4V0.9c0-0.5-0.4-0.9-0.9-0.9h-7.7c-0.5,0-0.9,0.4-0.9,0.9v6.5C24.7,8,22.3,9,20.2,10.4l-4.6-4.6
			c-0.3-0.3-0.9-0.3-1.2,0l-5.5,5.5c-0.3,0.3-0.3,0.9,0,1.2l4.6,4.6c-1.4,2.2-2.4,4.6-2.9,7.1H4c-0.5,0-0.9,0.4-0.9,0.9v7.7
			c0,0.5,0.4,0.9,0.9,0.9h6.5c0.6,2.5,1.5,4.9,2.9,7.1l-4.6,4.6c-0.2,0.2-0.3,0.4-0.3,0.6c0,0.2,0.1,0.5,0.3,0.6l5.5,5.5
			c0.3,0.3,0.9,0.3,1.2,0l4.6-4.6c2.2,1.4,4.6,2.4,7.1,2.9V57c0,0.5,0.4,0.9,0.9,0.9h7.7c0.5,0,0.9-0.4,0.9-0.9v-6.6
			c2.5-0.6,4.9-1.5,7.1-2.9l4.6,4.6c0.3,0.3,0.9,0.3,1.2,0l5.5-5.5c0.3-0.3,0.3-0.9,0-1.2l-4.6-4.6c1.4-2.2,2.4-4.6,2.9-7.1H60
			c0.5,0,0.9-0.4,0.9-0.9v-7.7C60.9,24.6,60.5,24.2,60,24.2z M59.2,31.9h-6.4c-0.4,0-0.8,0.3-0.9,0.7c-0.5,2.8-1.6,5.4-3.2,7.8
			c-0.2,0.4-0.2,0.8,0.1,1.1l4.5,4.5l-4.2,4.2l-4.5-4.5c-0.3-0.3-0.8-0.3-1.1-0.1c-2.3,1.6-5,2.7-7.8,3.2c-0.4,0.1-0.7,0.4-0.7,0.9
			v6.4h-6v-6.4c0-0.4-0.3-0.8-0.7-0.9c-2.8-0.5-5.4-1.6-7.8-3.2c-0.4-0.2-0.8-0.2-1.1,0.1l-4.5,4.5L10.7,46l4.5-4.5
			c0.3-0.3,0.3-0.8,0.1-1.1c-1.6-2.3-2.7-5-3.2-7.8c-0.1-0.4-0.4-0.7-0.9-0.7H4.8v-6h6.4c0.4,0,0.8-0.3,0.9-0.7
			c0.5-2.8,1.6-5.4,3.2-7.8c0.2-0.4,0.2-0.8-0.1-1.1l-4.5-4.5l4.2-4.2l4.5,4.5c0.3,0.3,0.8,0.3,1.1,0.1c2.3-1.6,5-2.7,7.8-3.2
			C28.7,8.9,29,8.6,29,8.1V1.8h6v6.4c0,0.4,0.3,0.8,0.7,0.9c2.8,0.5,5.4,1.6,7.8,3.2c0.4,0.2,0.8,0.2,1.1-0.1l4.5-4.5l4.2,4.2
			l-4.5,4.5c-0.3,0.3-0.3,0.8-0.1,1.1c1.6,2.3,2.7,5,3.2,7.8c0.1,0.4,0.4,0.7,0.9,0.7h6.4V31.9z"/><path fill="#a67c52" d="M51.9,32.6c0.1-0.4,0.4-0.7,0.9-0.7h6.4v-6h-6.4c-0.4,0-0.8-0.3-0.9-0.7c-0.5-2.8-1.6-5.4-3.2-7.8
			c-0.2-0.4-0.2-0.8,0.1-1.1l4.5-4.5l-4.2-4.2l-4.5,4.5c-0.3,0.3-0.8,0.3-1.1,0.1c-2.3-1.6-5-2.7-7.8-3.2C35.3,8.9,35,8.6,35,8.1
			V1.8h-6v6.4c0,0.4-0.3,0.8-0.7,0.9c-2.8,0.5-5.4,1.6-7.8,3.2c-0.4,0.2-0.8,0.2-1.1-0.1l-4.5-4.5l-4.2,4.2l4.5,4.5
			c0.3,0.3,0.3,0.8,0.1,1.1c-1.6,2.3-2.7,5-3.2,7.8c-0.1,0.4-0.4,0.7-0.9,0.7H4.8v6h6.4c0.4,0,0.8,0.3,0.9,0.7
			c0.5,2.8,1.6,5.4,3.2,7.8c0.2,0.4,0.2,0.8-0.1,1.1L10.7,46l4.2,4.2l4.5-4.5c0.3-0.3,0.8-0.3,1.1-0.1c2.3,1.6,5,2.7,7.8,3.2
			c0.4,0.1,0.7,0.4,0.7,0.9v6.4h6v-6.4c0-0.4,0.3-0.8,0.7-0.9c2.8-0.5,5.4-1.6,7.8-3.2c0.4-0.2,0.8-0.2,1.1,0.1l4.5,4.5l4.2-4.2
			l-4.5-4.5c-0.3-0.3-0.3-0.8-0.1-1.1C50.3,38,51.4,35.4,51.9,32.6z M46.3,24.1l0.4,1.6c0.1,0.5-0.1,1-0.6,1.1c-0.1,0-0.2,0-0.2,0
			c-0.4,0-0.7-0.3-0.8-0.6l-0.4-1.6c-0.1-0.5,0.1-0.9,0.6-1.1C45.6,23.3,46.1,23.6,46.3,24.1z M42.7,19.5c0.4-0.3,0.9-0.2,1.2,0.2
			l0.9,1.4c0.3,0.4,0.2,0.9-0.2,1.2c-0.1,0.1-0.3,0.1-0.5,0.1c-0.3,0-0.6-0.1-0.7-0.4l-0.9-1.4C42.2,20.3,42.3,19.8,42.7,19.5z
			 M39.1,16.5c0.3-0.4,0.8-0.5,1.2-0.2l1.3,1c0.4,0.3,0.5,0.8,0.2,1.2c-0.2,0.2-0.4,0.4-0.7,0.4c-0.2,0-0.4-0.1-0.5-0.2l-1.3-1
			C38.9,17.4,38.8,16.9,39.1,16.5z M34.7,14.9c0.1-0.5,0.6-0.7,1.1-0.6l1.6,0.5c0.5,0.1,0.7,0.6,0.6,1.1c-0.1,0.4-0.5,0.6-0.8,0.6
			c-0.1,0-0.2,0-0.3,0L35.3,16C34.8,15.8,34.5,15.3,34.7,14.9z M30.9,13.9l1.6,0h0c0.5,0,0.9,0.4,0.9,0.9c0,0.5-0.4,0.9-0.9,0.9
			l-1.6,0c0,0,0,0,0,0c-0.5,0-0.9-0.4-0.9-0.9C30,14.3,30.4,13.9,30.9,13.9z M26.1,15l1.6-0.6c0.5-0.2,1,0.1,1.1,0.5
			c0.2,0.5-0.1,1-0.5,1.1l-1.5,0.6c-0.1,0-0.2,0.1-0.3,0.1c-0.4,0-0.7-0.2-0.8-0.6C25.4,15.7,25.6,15.2,26.1,15z M21.9,17.7l1.3-1
			c0.4-0.3,0.9-0.2,1.2,0.1c0.3,0.4,0.2,0.9-0.1,1.2l-1.3,1c-0.2,0.1-0.4,0.2-0.5,0.2c-0.3,0-0.5-0.1-0.7-0.3
			C21.5,18.5,21.5,18,21.9,17.7z M18.8,21.6l0.9-1.4c0.3-0.4,0.8-0.5,1.2-0.3c0.4,0.3,0.5,0.8,0.3,1.2l-0.9,1.4
			c-0.2,0.3-0.4,0.4-0.7,0.4c-0.2,0-0.3,0-0.5-0.1C18.7,22.5,18.6,22,18.8,21.6z M17.2,26.2l0.4-1.6c0.1-0.5,0.6-0.8,1.1-0.6
			c0.5,0.1,0.8,0.6,0.6,1.1l-0.4,1.6c-0.1,0.4-0.5,0.7-0.8,0.7c-0.1,0-0.1,0-0.2,0C17.3,27.1,17,26.7,17.2,26.2z M38.1,42.7
			C38.1,42.7,38.1,42.7,38.1,42.7c-1.9,0.8-3.9,1.3-6.1,1.3s-4.2-0.5-6.1-1.3c-5.3-2.3-9-7.6-9-13.7c0-0.5,0.4-0.9,0.9-0.9
			c0.5,0,0.9,0.4,0.9,0.9c0,4.9,2.7,9.2,6.7,11.5v-3.8c0-2.2,1.4-4,3.6-5c-1-0.8-1.6-2.1-1.6-3.5c0-2.6,2.1-4.7,4.7-4.7
			s4.7,2.1,4.7,4.7c0,1.4-0.6,2.7-1.6,3.5c2.1,0.9,3.6,2.8,3.6,5v3.8c4-2.3,6.7-6.6,6.7-11.5c0-0.5,0.4-0.9,0.9-0.9
			c0.5,0,0.9,0.4,0.9,0.9C47,35,43.3,40.3,38.1,42.7z"/><path fill="#03013a" d="M32.5 13.8L32.5 13.8l-1.7 0c-.5 0-.9.4-.9.9 0 .5.4.9.9.9 0 0 0 0 0 0l1.6 0c.5 0 .9-.4.9-.9C33.4 14.2 33 13.8 32.5 13.8zM37.4 14.8l-1.6-.5c-.5-.1-1 .1-1.1.6-.1.5.1 1 .6 1.1l1.6.5c.1 0 .2 0 .3 0 .4 0 .7-.2.8-.6C38.1 15.5 37.8 15 37.4 14.8zM28.7 15c-.2-.5-.7-.7-1.1-.5L26.1 15c-.5.2-.7.7-.5 1.1.1.4.5.6.8.6.1 0 .2 0 .3-.1l1.5-.6C28.7 16 28.9 15.5 28.7 15zM41.6 17.3l-1.3-1c-.4-.3-.9-.2-1.2.2-.3.4-.2.9.2 1.2l1.3 1c.2.1.3.2.5.2.3 0 .5-.1.7-.4C42.1 18.2 42 17.6 41.6 17.3zM24.4 16.8c-.3-.4-.8-.4-1.2-.1l-1.3 1c-.4.3-.4.9-.1 1.2.2.2.4.3.7.3.2 0 .4-.1.5-.2l1.3-1C24.7 17.7 24.7 17.2 24.4 16.8zM44.9 21.1l-.9-1.4c-.3-.4-.8-.5-1.2-.2-.4.3-.5.8-.2 1.2l.9 1.4c.2.2.4.4.7.4.2 0 .4 0 .5-.1C45 22 45.1 21.5 44.9 21.1zM20.9 19.9c-.4-.3-.9-.1-1.2.3l-.9 1.4c-.3.4-.1.9.3 1.2.1.1.3.1.5.1.3 0 .6-.1.7-.4l.9-1.4C21.4 20.7 21.3 20.2 20.9 19.9zM46.7 25.6l-.4-1.6c-.1-.5-.6-.7-1.1-.6-.5.1-.7.6-.6 1.1l.4 1.6c.1.4.5.6.8.6.1 0 .2 0 .2 0C46.6 26.6 46.8 26.1 46.7 25.6zM18.6 23.9c-.5-.1-.9.2-1.1.6l-.4 1.6c-.1.5.2.9.6 1.1.1 0 .1 0 .2 0 .4 0 .8-.3.8-.7l.4-1.6C19.4 24.5 19.1 24.1 18.6 23.9zM47 28.9c0 6.1-3.7 11.4-8.9 13.7 0 0 0 0 0 0-1.8.8-3.9 1.3-6.1 1.3s-4.2-.5-6.1-1.3c-5.3-2.3-9-7.6-9-13.7 0-.5.4-.9.9-.9.5 0 .9.4.9.9 0 4.9 2.7 9.2 6.7 11.5.6.3 1.1.6 1.8.8 1.5.6 3.1.9 4.8.9s3.3-.3 4.8-.9c.6-.2 1.2-.5 1.8-.8 4-2.3 6.7-6.6 6.7-11.5 0-.5.4-.9.9-.9C46.6 28 47 28.4 47 28.9z"/><path fill="#03013a" d="M38.6,36.6v5.3c0,0.4-0.2,0.7-0.5,0.8c0,0,0,0,0,0c-0.1,0-0.2,0.1-0.3,0.1c-0.5,0-0.9-0.4-0.9-0.9v-5.3
				c0-2.1-2.2-3.8-4.8-3.8s-4.8,1.7-4.8,3.8v5.3c0,0.5-0.4,0.9-0.9,0.9c-0.1,0-0.2,0-0.3-0.1c-0.3-0.1-0.5-0.4-0.5-0.8v-5.3
				c0-2.2,1.4-4,3.6-5c0.9-0.4,1.9-0.6,3-0.6c1.1,0,2.1,0.2,3,0.6C37.1,32.5,38.6,34.4,38.6,36.6z"/><path fill="#03013a" d="M32 23.4c-2.6 0-4.7 2.1-4.7 4.7 0 1.4.6 2.7 1.6 3.5.8.7 1.9 1.1 3 1.1s2.2-.4 3-1.1c1-.8 1.6-2.1 1.6-3.5C36.7 25.5 34.6 23.4 32 23.4zM29.1 28.1c0-1.6 1.3-2.9 2.9-2.9s2.9 1.3 2.9 2.9c0 1.6-1.3 2.9-2.9 2.9S29.1 29.7 29.1 28.1zM55.7 61.8c0 .2.1.3.3.4.2.1.3 0 .5-.1l1.5-1.5 2.1 0c.2 0 .3-.1.4-.3.1-.2 0-.3-.1-.5l-1.5-1.5 0-2.1c0-.2-.1-.3-.3-.4-.2-.1-.3 0-.5.1l-1.5 1.5-2.1 0c-.2 0-.3.1-.4.3s0 .3.1.5l1.5 1.5L55.7 61.8zM56.8 58.4c.1 0 .2 0 .3-.1l.9-.9 0 1.2c0 .1 0 .2.1.3l.9.9-1.2 0c-.1 0-.2 0-.3.1l-.9.9 0-1.2c0-.1 0-.2-.1-.3l-.9-.9L56.8 58.4zM56.8 58.4"/><path fill="#c69c6d" d="M21.3,60.2l-1.9,0c-0.2,0-0.4,0.1-0.5,0.2l-1.3,1.3l0-1.9c0-0.2-0.1-0.4-0.2-0.5L16.1,58l1.9,0
		c0.2,0,0.4-0.1,0.5-0.2l1.3-1.4l0,1.9c0,0.2,0.1,0.4,0.2,0.5L21.3,60.2z"/><path fill="#03013a" d="M23.4,60.4l-2.3-2.3l0.1-3.3c0-0.3-0.2-0.5-0.4-0.6c-0.2-0.1-0.5,0-0.7,0.1l-2.3,2.3l-3.3,0
		c-0.3,0-0.5,0.2-0.6,0.4c-0.1,0.2-0.1,0.5,0.1,0.7l2.3,2.3l-0.1,3.3c0,0.3,0.2,0.5,0.4,0.6c0.2,0.1,0.5,0.1,0.7-0.1l2.3-2.3l3.3,0
		c0.3,0,0.5-0.1,0.6-0.4C23.6,60.9,23.6,60.6,23.4,60.4z M19.4,60.2c-0.2,0-0.4,0.1-0.5,0.2l-1.3,1.3l0-1.9c0-0.2-0.1-0.4-0.2-0.5
		L16.1,58l1.9,0c0.2,0,0.4-0.1,0.5-0.2l1.3-1.4l0,1.9c0,0.2,0.1,0.4,0.2,0.5l1.4,1.3L19.4,60.2z"/></svg>